<svg width="66" height="64" viewBox="0 0 66 64" fill="none" xmlns="http://www.w3.org/2000/svg">
<path d="M61.5173 12.2099V11.0926H63.4425V2.57652H56.0491V11.0926H57.1655V12.2099H56.0491H54.9326H50.2619V11.0926H54.9326V2.57652H53.2808H47.243H44.7709V11.0926H46.4228V12.2099H44.7709V20.7032H43.6545V19.8824H29.403V18.7651H43.6545V2.57652H34.894H26.6575H23.388V18.7537H26.1334V19.871H23.388H22.2715H19.7994V16.8271H22.2715V2.57652H15.4135H7.17702H2.50626V18.7537H14.8553H15.9717H16.8147V19.871H15.9717V20.6918H14.8553V19.871H2.51765V30.3024H14.8667V24.5338H15.9831V30.3024V31.4196H2.51765V51.188H7.18841H15.4249H23.3538V28.4099H20.0843V27.2927H23.3538H24.4702H43.6545V24.5452H44.7709V27.2927H45.8873V28.4099H44.7709H43.6545H24.4702V51.188H26.6689H34.9054H46.4342H51.3783V51.7352V52.0088V53.6961H46.4342H41.2166V60.525H59.0566V53.6961H55.2174V51.188H63.4539V28.4099H51.6403V27.2927H63.4425V16.8613H65.9488V53.6961H63.4425H59.6034V60.525V61.0722H59.0566H41.2052H40.6584V60.525V53.6961H34.894H26.6575H15.4021H7.17702H2.50626H0V51.188V2.57652V0.0684204H2.50626H7.17702H15.4135H26.6689H34.9054H47.2544H53.2922H63.4425H65.9488V2.57652V12.7571H63.4425V12.2099H61.5173Z" fill="#29313C"/>
<path fill-rule="evenodd" clip-rule="evenodd" d="M63.5451 28.3983H60.3212H60.2528V37.7355H60.3212H60.3895V37.8723H63.4084V37.7355H63.5451V28.3983ZM63.4084 37.7355H60.3895V28.5351H63.4084V37.7355ZM63.4084 40.8934H60.3895V41.0302H60.2528V45.4588H63.5451V41.0302H63.4084V40.8934ZM63.4084 41.0302H60.3895V45.322H63.4084V41.0302ZM62.1667 40.0612C62.1667 39.9244 62.2236 39.8104 62.3034 39.7192C62.3945 39.628 62.5084 39.5824 62.6451 39.5824C62.7819 39.5824 62.8958 39.6394 62.9869 39.7192C63.078 39.8104 63.1236 39.9244 63.1236 40.0612C63.1236 40.198 63.0667 40.312 62.9869 40.4032C62.8958 40.4944 62.7819 40.54 62.6451 40.54C62.5084 40.54 62.3945 40.483 62.3034 40.4032C62.2236 40.312 62.1667 40.198 62.1667 40.0612ZM62.3034 40.0612C62.3034 39.97 62.349 39.8788 62.4059 39.8218C62.4629 39.7534 62.554 39.7192 62.6452 39.7192C62.7363 39.7192 62.8274 39.7648 62.8844 39.8218C62.9527 39.8788 62.9869 39.97 62.9869 40.0612C62.9869 40.1524 62.9413 40.2436 62.8844 40.3006C62.8274 40.369 62.7363 40.4032 62.6452 40.4032C62.554 40.4032 62.4629 40.3576 62.4059 40.3006C62.3376 40.2436 62.3034 40.1524 62.3034 40.0612ZM60.6743 40.0612C60.6743 39.9244 60.7313 39.8104 60.811 39.7192C60.9022 39.628 61.0161 39.5824 61.1528 39.5824C61.2895 39.5824 61.4034 39.6394 61.4945 39.7192C61.5857 39.8104 61.6313 39.9244 61.6313 40.0612C61.6313 40.198 61.5743 40.312 61.4945 40.4032C61.4034 40.4944 61.2895 40.54 61.1528 40.54C61.0161 40.54 60.9022 40.483 60.811 40.4032C60.7313 40.312 60.6743 40.198 60.6743 40.0612ZM60.811 40.0612C60.811 39.97 60.8566 39.8788 60.9136 39.8218C60.9705 39.7534 61.0616 39.7192 61.1528 39.7192C61.2439 39.7192 61.3351 39.7648 61.392 39.8218C61.4604 39.8788 61.4945 39.97 61.4945 40.0612C61.4945 40.1524 61.449 40.2436 61.392 40.3006C61.3351 40.369 61.2439 40.4032 61.1528 40.4032C61.0616 40.4032 60.9705 40.3576 60.9136 40.3006C60.8452 40.2436 60.811 40.1524 60.811 40.0612ZM62.1667 38.6931C62.1667 38.5563 62.2236 38.4423 62.3034 38.3511C62.3945 38.2599 62.5084 38.2143 62.6451 38.2143C62.7819 38.2143 62.8958 38.2713 62.9869 38.3511C63.078 38.4423 63.1236 38.5563 63.1236 38.6931C63.1236 38.8299 63.0667 38.9439 62.9869 39.0351C62.8958 39.1263 62.7819 39.1719 62.6451 39.1719C62.5084 39.1719 62.3945 39.1149 62.3034 39.0351C62.2236 38.9439 62.1667 38.8299 62.1667 38.6931ZM62.3034 38.6931C62.3034 38.6019 62.349 38.5107 62.4059 38.4537C62.4629 38.3853 62.554 38.3511 62.6452 38.3511C62.7363 38.3511 62.8274 38.3967 62.8844 38.4537C62.9527 38.5107 62.9869 38.6019 62.9869 38.6931C62.9869 38.7843 62.9413 38.8755 62.8844 38.9325C62.8274 39.0009 62.7363 39.0351 62.6452 39.0351C62.554 39.0351 62.4629 38.9895 62.4059 38.9325C62.3376 38.8755 62.3034 38.7843 62.3034 38.6931ZM60.6743 38.6931C60.6743 38.5563 60.7313 38.4423 60.811 38.3511C60.9022 38.2599 61.0161 38.2143 61.1528 38.2143C61.2895 38.2143 61.4034 38.2713 61.4945 38.3511C61.5857 38.4423 61.6313 38.5563 61.6313 38.6931C61.6313 38.8299 61.5743 38.9439 61.4945 39.0351C61.4034 39.1263 61.2895 39.1719 61.1528 39.1719C61.0161 39.1719 60.9022 39.1149 60.811 39.0351C60.7313 38.9439 60.6743 38.8299 60.6743 38.6931ZM60.811 38.6931C60.811 38.6019 60.8566 38.5107 60.9136 38.4537C60.9705 38.3853 61.0616 38.3511 61.1528 38.3511C61.2439 38.3511 61.3351 38.3967 61.392 38.4537C61.4604 38.5107 61.4945 38.6019 61.4945 38.6931C61.4945 38.7843 61.449 38.8755 61.392 38.9325C61.3351 39.0009 61.2439 39.0351 61.1528 39.0351C61.0616 39.0351 60.9705 38.9895 60.9136 38.9325C60.8452 38.8755 60.811 38.7843 60.811 38.6931Z" fill="#29313C"/>
<path fill-rule="evenodd" clip-rule="evenodd" d="M54.9355 6.12164H52.3723C52.0989 6.12164 51.8369 6.00764 51.6546 5.82523C51.4723 5.64282 51.3584 5.39201 51.3584 5.107C51.3584 4.83339 51.4723 4.57118 51.6546 4.38878C51.8369 4.20637 52.0875 4.09236 52.3723 4.09236H54.9355V6.05324V6.12164ZM51.7457 4.46858C51.5862 4.62819 51.4837 4.85619 51.4837 5.107C51.4837 5.35781 51.5862 5.58582 51.7457 5.74543C51.9052 5.90504 52.1331 6.00764 52.3837 6.00764L53.8077 6.00764L54.833 6.00764V4.20637H52.3837C52.1331 4.20637 51.9052 4.30897 51.7457 4.46858ZM53.8077 6.00764H53.9216V4.20637H53.8077V6.00764Z" fill="#29313C"/>
<path fill-rule="evenodd" clip-rule="evenodd" d="M54.9355 6.9022H54.0014C53.5343 6.9022 53.1128 7.08461 52.8052 7.39242C52.4976 7.68883 52.304 8.09925 52.304 8.55527C52.304 9.01128 52.4976 9.4217 52.8052 9.71811C53.1128 10.0145 53.5343 10.1969 54.0014 10.1969H54.9355V6.9022ZM54.0014 10.0601C53.5685 10.0601 53.1811 9.88912 52.8963 9.61551C52.6115 9.3419 52.4407 8.96568 52.4407 8.53247C52.4407 8.11065 52.6115 7.73444 52.8963 7.46082C53.1811 7.18721 53.5685 7.01621 54.0014 7.01621H54.8102V10.0601H54.0014ZM54.2178 9.84352H53.9558C53.6027 9.84352 53.2837 9.70671 53.0444 9.4787C52.8166 9.2507 52.6685 8.94288 52.6685 8.60087V8.50967C52.6685 8.16765 52.8166 7.85984 53.0444 7.63183C53.2723 7.40382 53.5913 7.26702 53.9558 7.26702H54.2178V9.78652V9.84352ZM52.8052 8.50967C52.8052 8.20185 52.9419 7.92824 53.147 7.72304C53.352 7.51783 53.6368 7.39242 53.9558 7.39242H54.0811V9.71811H53.9558C53.6482 9.71811 53.352 9.59271 53.147 9.3875C52.9305 9.19369 52.8052 8.90868 52.8052 8.60087V8.50967ZM53.8679 8.56824C53.8679 8.68188 53.7876 8.76268 53.6794 8.76268C53.5711 8.76268 53.4806 8.6708 53.4806 8.56824C53.4806 8.46569 53.5704 8.38155 53.6794 8.38155C53.7883 8.38155 53.8679 8.45461 53.8679 8.56824ZM53.6793 8.67375C53.6179 8.67375 53.5717 8.63343 53.5717 8.56824C53.5717 8.50306 53.6305 8.46443 53.6793 8.46443C53.7282 8.46443 53.787 8.50104 53.787 8.56824C53.787 8.63544 53.7408 8.67375 53.6793 8.67375Z" fill="#29313C"/>
<path fill-rule="evenodd" clip-rule="evenodd" d="M7.73523 30.3138V27.7487C7.73523 27.4751 7.84915 27.2129 8.03142 27.0305C8.2137 26.848 8.46432 26.734 8.74913 26.734C9.02254 26.734 9.28455 26.848 9.46683 27.0305C9.6491 27.2129 9.76302 27.4637 9.76302 27.7487V30.3138H7.80358H7.73523ZM9.38708 27.1217C9.22759 26.962 8.99975 26.8594 8.74913 26.8594C8.4985 26.8594 8.27066 26.962 8.11117 27.1217C7.95168 27.2813 7.84915 27.5093 7.84915 27.7601V29.1851H9.6491V27.7601C9.6491 27.5093 9.54657 27.2813 9.38708 27.1217ZM9.6491 29.2991H7.84915V30.2112H9.6491V29.2991Z" fill="#29313C"/>
<path fill-rule="evenodd" clip-rule="evenodd" d="M14.0009 30.3138V29.379C14.0009 28.9115 13.8187 28.4897 13.5111 28.1819C13.2149 27.8741 12.8048 27.6803 12.3491 27.6803C11.8934 27.6803 11.4833 27.8741 11.1871 28.1819C10.8909 28.4897 10.7086 28.9115 10.7086 29.379V30.3138H14.0009ZM10.8453 29.379C10.8453 28.9457 11.0162 28.5581 11.2896 28.2731C11.563 27.9881 11.939 27.8171 12.3719 27.8171C12.7934 27.8171 13.1693 27.9881 13.4427 28.2731C13.7161 28.5581 13.887 28.9457 13.887 29.379V30.1884H10.8453V29.379ZM11.0618 29.5956V29.3334C11.0618 28.9799 11.1985 28.6607 11.4263 28.4213C11.6542 28.1933 11.9617 28.0451 12.3035 28.0451H12.3946C12.7364 28.0451 13.044 28.1933 13.2718 28.4213C13.4997 28.6493 13.6364 28.9685 13.6364 29.3334V29.5956H11.1187H11.0618ZM12.3946 28.1819C12.7022 28.1819 12.9756 28.3187 13.1807 28.5239C13.3858 28.7291 13.5111 29.0141 13.5111 29.3334V29.4588H11.1871V29.3334C11.1871 29.0255 11.3124 28.7291 11.5175 28.5239C11.7111 28.3073 11.9959 28.1819 12.3035 28.1819H12.3946ZM12.3361 29.2454C12.2226 29.2454 12.1418 29.165 12.1418 29.0567C12.1418 28.9484 12.2336 28.8578 12.3361 28.8578C12.4386 28.8578 12.5227 28.9477 12.5227 29.0567C12.5227 29.1657 12.4497 29.2454 12.3361 29.2454ZM12.2307 29.0567C12.2307 28.9953 12.271 28.949 12.3361 28.949C12.4012 28.949 12.4399 29.0078 12.4399 29.0567C12.4399 29.1056 12.4033 29.1644 12.3361 29.1644C12.269 29.1644 12.2307 29.1182 12.2307 29.0567Z" fill="#29313C"/>
<path fill-rule="evenodd" clip-rule="evenodd" d="M5.81001 19.8824H2.5177V19.928V26.9735H5.81001V19.8824ZM5.70748 19.9736V26.8823H2.60884V19.9736H5.70748ZM2.87085 25.4116V21.4671C2.87085 21.1136 3.00756 20.8286 3.22401 20.6234C3.46324 20.4068 3.78222 20.2928 4.14677 20.2928C4.51132 20.2928 4.84169 20.4068 5.06953 20.6234C5.28598 20.8286 5.42268 21.1136 5.42268 21.4671V25.4116C5.42268 25.765 5.28598 26.05 5.06953 26.2552C4.83029 26.4718 4.51132 26.5858 4.14677 26.5858C3.78222 26.5858 3.45185 26.4718 3.22401 26.2552C3.00756 26.05 2.87085 25.765 2.87085 25.4116ZM5.34294 25.4116C5.34294 25.7422 5.21763 26.0044 5.01257 26.1868C4.79612 26.3806 4.48853 26.4832 4.14677 26.4946C3.80501 26.4946 3.49742 26.3806 3.28097 26.1868C3.07591 25.993 2.9506 25.7422 2.9506 25.4116V21.467C2.9506 21.1364 3.07591 20.8742 3.28097 20.6918C3.49742 20.4866 3.80501 20.384 4.14677 20.384C4.48853 20.384 4.79612 20.498 5.01257 20.6918C5.21763 20.8856 5.34294 21.1364 5.34294 21.467V25.4116ZM4.14025 25.8607C4.0267 25.8607 3.94596 25.7803 3.94596 25.672C3.94596 25.5637 4.03777 25.473 4.14025 25.473C4.24274 25.473 4.32681 25.563 4.32681 25.672C4.32681 25.781 4.25381 25.8607 4.14025 25.8607ZM4.03483 25.672C4.03483 25.6105 4.07512 25.5642 4.14025 25.5642C4.20539 25.5642 4.24399 25.6231 4.24399 25.672C4.24399 25.7209 4.2074 25.7797 4.14025 25.7797C4.0731 25.7797 4.03483 25.7334 4.03483 25.672Z" fill="#29313C"/>
<path d="M46.4797 51.245H51.31V53.6391H46.4797V51.245Z" fill="white"/>
<path fill-rule="evenodd" clip-rule="evenodd" d="M46.4114 53.6961V51.188H51.3555V53.6961H46.4114ZM46.5253 53.5821H51.2416V51.302H46.5253V53.5821Z" fill="#171924"/>
<rect x="46.4227" y="51.9404" width="4.94416" height="0.136803" fill="#171924"/>
<path d="M26.7258 51.245H34.8484V53.6391H26.7258V51.245Z" fill="white"/>
<path fill-rule="evenodd" clip-rule="evenodd" d="M26.6575 53.6961V51.188H34.894V53.6961H26.6575ZM26.7714 53.5821H34.78V51.302H26.7714V53.5821Z" fill="#171924"/>
<rect x="26.6688" y="51.9404" width="8.23647" height="0.136803" fill="#171924"/>
<path d="M7.23401 51.245H15.3566V53.6391H7.23401V51.245Z" fill="white"/>
<path fill-rule="evenodd" clip-rule="evenodd" d="M7.177 53.6961V51.188H15.4135V53.6961H7.177ZM7.29092 53.5821H15.2996V51.302H7.29092V53.5821Z" fill="#171924"/>
<rect x="7.177" y="51.9404" width="8.23648" height="0.136803" fill="#171924"/>
<path d="M7.23401 0.125427H15.3566V2.51952H7.23401V0.125427Z" fill="white"/>
<path fill-rule="evenodd" clip-rule="evenodd" d="M7.177 2.57652V0.0684204H15.4135V2.57652H7.177ZM7.29092 2.46251H15.2996V0.182425H7.29092V2.46251Z" fill="#171924"/>
<rect x="7.177" y="1.68729" width="8.23648" height="0.136805" fill="#171924"/>
<path d="M26.7258 0.125427H34.8484V2.51952H26.7258V0.125427Z" fill="white"/>
<path fill-rule="evenodd" clip-rule="evenodd" d="M26.6575 2.57652V0.0684204H34.894V2.57652H26.6575ZM26.7714 2.46251H34.78V0.182425H26.7714V2.46251Z" fill="#171924"/>
<rect x="26.6688" y="1.68729" width="8.23647" height="0.136805" fill="#171924"/>
<path d="M47.2999 0.125427H53.2238V2.51952H47.2999L47.2999 0.125427Z" fill="white"/>
<path fill-rule="evenodd" clip-rule="evenodd" d="M47.2429 2.57652V0.0684204H53.2807V2.57652H47.2429ZM47.3568 2.46251H53.1668V0.182425H47.3568V2.46251Z" fill="#171924"/>
<rect x="47.2429" y="1.68729" width="6.03781" height="0.136805" fill="#171924"/>
<path opacity="0.2" d="M8.27134 58.4155C9.22417 59.8668 8.6714 61.7458 7.04545 62.5856C5.42385 63.4377 3.32366 62.9424 2.38334 61.4854C1.42655 60.0279 1.98394 58.1608 3.61288 57.3188C5.23433 56.4675 7.33241 56.9606 8.27134 58.4155Z" fill="#0B1739" fill-opacity="0.2"/>
<path fill-rule="evenodd" clip-rule="evenodd" d="M5.69761 60.6144L2.94389 61.0596L4.76381 59.1841L7.5104 58.728L5.69761 60.6144ZM4.97305 59.508L3.657 60.7138L5.50303 60.2941L4.97305 59.508Z" fill="#FF0000"/>
<path fill-rule="evenodd" clip-rule="evenodd" d="M5.69761 60.6144L2.94389 61.0596L4.76381 59.1841L7.5104 58.728L5.69761 60.6144ZM4.97305 59.508L3.657 60.7138L5.50303 60.2941L4.97305 59.508Z" fill="#0B1739"/>
<path fill-rule="evenodd" clip-rule="evenodd" d="M0.721694 63.0411C0.58533 63.0411 0.462155 63.0147 0.352164 62.9619C0.242172 62.9091 0.155981 62.8361 0.0935887 62.743C0.0311959 62.6499 0 62.5448 0 62.4278C0 62.3108 0.0315175 62.2058 0.0945535 62.1127C0.157589 62.0195 0.244102 61.9466 0.354093 61.8938C0.464085 61.8409 0.58726 61.8145 0.723624 61.8145C0.834258 61.8145 0.935243 61.8316 1.02658 61.8657C1.11792 61.8997 1.1951 61.9491 1.25814 62.0139L1.09605 62.1484C0.998279 62.0553 0.877997 62.0087 0.735202 62.0087C0.642577 62.0087 0.559603 62.0266 0.486275 62.0624C0.412948 62.0982 0.355701 62.1479 0.314535 62.2115C0.273369 62.2751 0.252786 62.3472 0.252786 62.4278C0.252786 62.5085 0.273369 62.5806 0.314535 62.6442C0.355701 62.7078 0.412948 62.7575 0.486275 62.7932C0.559603 62.829 0.642577 62.8469 0.735202 62.8469C0.877997 62.8469 0.998279 62.7998 1.09605 62.7055L1.25814 62.8418C1.1951 62.9065 1.1176 62.9559 1.02562 62.99C0.933635 63.0241 0.832329 63.0411 0.721694 63.0411Z" fill="#FF0000"/>
<path fill-rule="evenodd" clip-rule="evenodd" d="M0.721694 63.0411C0.58533 63.0411 0.462155 63.0147 0.352164 62.9619C0.242172 62.9091 0.155981 62.8361 0.0935887 62.743C0.0311959 62.6499 0 62.5448 0 62.4278C0 62.3108 0.0315175 62.2058 0.0945535 62.1127C0.157589 62.0195 0.244102 61.9466 0.354093 61.8938C0.464085 61.8409 0.58726 61.8145 0.723624 61.8145C0.834258 61.8145 0.935243 61.8316 1.02658 61.8657C1.11792 61.8997 1.1951 61.9491 1.25814 62.0139L1.09605 62.1484C0.998279 62.0553 0.877997 62.0087 0.735202 62.0087C0.642577 62.0087 0.559603 62.0266 0.486275 62.0624C0.412948 62.0982 0.355701 62.1479 0.314535 62.2115C0.273369 62.2751 0.252786 62.3472 0.252786 62.4278C0.252786 62.5085 0.273369 62.5806 0.314535 62.6442C0.355701 62.7078 0.412948 62.7575 0.486275 62.7932C0.559603 62.829 0.642577 62.8469 0.735202 62.8469C0.877997 62.8469 0.998279 62.7998 1.09605 62.7055L1.25814 62.8418C1.1951 62.9065 1.1176 62.9559 1.02562 62.99C0.933635 63.0241 0.832329 63.0411 0.721694 63.0411Z" fill="#0B1739"/>
<path fill-rule="evenodd" clip-rule="evenodd" d="M10.4301 56.9032C10.5626 56.9032 10.6819 56.9296 10.788 56.9824C10.8941 57.0353 10.9774 57.1082 11.0379 57.2014C11.0984 57.2945 11.1286 57.3995 11.1286 57.5165C11.1286 57.6335 11.0984 57.7385 11.0379 57.8317C10.9774 57.9248 10.8941 57.9978 10.788 58.0506C10.6819 58.1034 10.5626 58.1298 10.4301 58.1298C10.3091 58.1298 10.1988 58.1076 10.0991 58.0633C9.99942 58.0191 9.91774 57.9572 9.85406 57.8777C9.79038 57.7982 9.75082 57.7079 9.73538 57.6068H9.52312V58.1128H9.27612V56.9203H9.52312V57.4092H9.73924C9.75725 57.3104 9.7981 57.2226 9.86178 57.146C9.92545 57.0693 10.0065 57.0097 10.1049 56.9671C10.2033 56.9245 10.3117 56.9032 10.4301 56.9032ZM10.4301 57.9356C10.5137 57.9356 10.5896 57.918 10.6578 57.8828C10.726 57.8476 10.7794 57.7982 10.818 57.7346C10.8566 57.671 10.8759 57.5983 10.8759 57.5165C10.8759 57.4347 10.8566 57.3621 10.818 57.2985C10.7794 57.2349 10.726 57.1855 10.6578 57.1502C10.5896 57.115 10.5137 57.0974 10.4301 57.0974C10.3465 57.0974 10.2709 57.115 10.2034 57.1502C10.1358 57.1855 10.0824 57.2349 10.0432 57.2985C10.004 57.3621 9.98435 57.4347 9.98435 57.5165C9.98435 57.5983 10.004 57.671 10.0432 57.7346C10.0824 57.7982 10.1358 57.8476 10.2034 57.8828C10.2709 57.918 10.3465 57.9356 10.4301 57.9356Z" fill="#FF0000"/>
<path fill-rule="evenodd" clip-rule="evenodd" d="M10.4301 56.9032C10.5626 56.9032 10.6819 56.9296 10.788 56.9824C10.8941 57.0353 10.9774 57.1082 11.0379 57.2014C11.0984 57.2945 11.1286 57.3995 11.1286 57.5165C11.1286 57.6335 11.0984 57.7385 11.0379 57.8317C10.9774 57.9248 10.8941 57.9978 10.788 58.0506C10.6819 58.1034 10.5626 58.1298 10.4301 58.1298C10.3091 58.1298 10.1988 58.1076 10.0991 58.0633C9.99942 58.0191 9.91774 57.9572 9.85406 57.8777C9.79038 57.7982 9.75082 57.7079 9.73538 57.6068H9.52312V58.1128H9.27612V56.9203H9.52312V57.4092H9.73924C9.75725 57.3104 9.7981 57.2226 9.86178 57.146C9.92545 57.0693 10.0065 57.0097 10.1049 56.9671C10.2033 56.9245 10.3117 56.9032 10.4301 56.9032ZM10.4301 57.9356C10.5137 57.9356 10.5896 57.918 10.6578 57.8828C10.726 57.8476 10.7794 57.7982 10.818 57.7346C10.8566 57.671 10.8759 57.5983 10.8759 57.5165C10.8759 57.4347 10.8566 57.3621 10.818 57.2985C10.7794 57.2349 10.726 57.1855 10.6578 57.1502C10.5896 57.115 10.5137 57.0974 10.4301 57.0974C10.3465 57.0974 10.2709 57.115 10.2034 57.1502C10.1358 57.1855 10.0824 57.2349 10.0432 57.2985C10.004 57.3621 9.98435 57.4347 9.98435 57.5165C9.98435 57.5983 10.004 57.671 10.0432 57.7346C10.0824 57.7982 10.1358 57.8476 10.2034 57.8828C10.2709 57.918 10.3465 57.9356 10.4301 57.9356Z" fill="#0B1739"/>
<path d="M53.3118 57.8142H54.2154V57.9869L53.7073 59.2198H53.5025L54.0146 57.9869H53.3118V57.8142ZM54.4407 59.009H54.6455L54.4869 59.521H54.3443L54.4407 59.009ZM55.4161 59.2359C55.3425 59.2359 55.2755 59.2238 55.2153 59.1997C55.1564 59.1756 55.1062 59.1375 55.0647 59.0853C55.0232 59.0317 54.9911 58.9635 54.9683 58.8805C54.9456 58.7961 54.9342 58.6944 54.9342 58.5752V58.4588C54.9342 58.341 54.9456 58.2406 54.9683 58.1576C54.9911 58.0732 55.0232 58.005 55.0647 57.9527C55.1075 57.8992 55.1584 57.8604 55.2173 57.8363C55.2776 57.8108 55.3438 57.7981 55.4161 57.7981C55.4897 57.7981 55.556 57.8102 55.6149 57.8343C55.6751 57.8584 55.726 57.8972 55.7675 57.9507C55.809 58.003 55.8411 58.0712 55.8639 58.1556C55.8867 58.2386 55.898 58.3396 55.898 58.4588V58.5752C55.898 58.693 55.8867 58.7941 55.8639 58.8785C55.8411 58.9615 55.8083 59.0297 55.7655 59.0833C55.724 59.1355 55.6731 59.1743 55.6129 59.1997C55.554 59.2238 55.4884 59.2359 55.4161 59.2359ZM55.4161 59.0552C55.4603 59.0552 55.4998 59.0478 55.5346 59.0331C55.5707 59.017 55.6008 58.9909 55.6249 58.9548C55.649 58.9173 55.6678 58.8677 55.6812 58.8062C55.6946 58.7446 55.7012 58.6676 55.7012 58.5752V58.4588C55.7012 58.3664 55.6946 58.2901 55.6812 58.2299C55.6678 58.1683 55.6484 58.1187 55.6229 58.0813C55.5988 58.0438 55.5687 58.0177 55.5326 58.003C55.4978 57.9869 55.4589 57.9789 55.4161 57.9789C55.3719 57.9789 55.3318 57.9869 55.2956 58.003C55.2608 58.0177 55.2314 58.0438 55.2073 58.0813C55.1832 58.1174 55.1644 58.1663 55.151 58.2279C55.1377 58.2894 55.131 58.3664 55.131 58.4588V58.5752C55.131 58.6676 55.1377 58.7446 55.151 58.8062C55.1644 58.8664 55.1832 58.9153 55.2073 58.9527C55.2327 58.9902 55.2628 59.017 55.2976 59.0331C55.3338 59.0478 55.3733 59.0552 55.4161 59.0552ZM56.097 58.017L56.3902 57.8142H56.579V59.2198H56.3902V58.023L56.097 58.2218V58.017Z" fill="#29313C"/>
<path d="M34.7389 41.6917V44.5029H34.3413V42.0411H33.7068V41.6917H34.7389ZM36.2806 41.6917V44.5029H35.883V42.0411H35.2484V41.6917H36.2806ZM38.6696 43.029C38.8302 43.0906 38.9534 43.179 39.0391 43.2941C39.1248 43.4092 39.1676 43.5471 39.1676 43.7077C39.1676 43.8764 39.1221 44.0237 39.031 44.1495C38.94 44.2727 38.8102 44.3677 38.6415 44.4347C38.4728 44.5016 38.2747 44.5351 38.0471 44.5351C37.8222 44.5351 37.6254 44.5016 37.4567 44.4347C37.2908 44.3677 37.1622 44.2727 37.0712 44.1495C36.9802 44.0237 36.9347 43.8764 36.9347 43.7077C36.9347 43.5471 36.9762 43.4092 37.0592 43.2941C37.1448 43.179 37.268 43.0906 37.4286 43.029C37.3001 42.9675 37.2024 42.8858 37.1355 42.7841C37.0685 42.6823 37.0351 42.5618 37.0351 42.4226C37.0351 42.2673 37.0766 42.1321 37.1596 42.017C37.2452 41.9019 37.3644 41.8135 37.517 41.7519C37.6696 41.6903 37.8463 41.6596 38.0471 41.6596C38.2506 41.6596 38.4286 41.6903 38.5812 41.7519C38.7365 41.8135 38.8557 41.9019 38.9387 42.017C39.0244 42.1321 39.0672 42.2673 39.0672 42.4226C39.0672 42.5592 39.0324 42.6796 38.9628 42.7841C38.8958 42.8858 38.7981 42.9675 38.6696 43.029ZM38.0471 41.9849C37.857 41.9849 37.7071 42.0264 37.5973 42.1094C37.4875 42.1897 37.4327 42.2994 37.4327 42.4387C37.4327 42.5779 37.4862 42.6877 37.5933 42.768C37.7031 42.8483 37.8543 42.8885 38.0471 42.8885C38.2426 42.8885 38.3952 42.8483 38.5049 42.768C38.6174 42.6877 38.6736 42.5779 38.6736 42.4387C38.6736 42.2994 38.6161 42.1897 38.5009 42.1094C38.3885 42.0264 38.2372 41.9849 38.0471 41.9849ZM38.0471 44.2098C38.2693 44.2098 38.4447 44.1642 38.5732 44.0732C38.7017 43.9795 38.766 43.8537 38.766 43.6957C38.766 43.5404 38.7017 43.4186 38.5732 43.3302C38.4447 43.2392 38.2693 43.1937 38.0471 43.1937C37.8249 43.1937 37.6509 43.2392 37.525 43.3302C37.3992 43.4186 37.3363 43.5404 37.3363 43.6957C37.3363 43.8537 37.3992 43.9795 37.525 44.0732C37.6509 44.1642 37.8249 44.2098 38.0471 44.2098ZM39.8988 43.9768C39.9738 43.9768 40.0353 44.0036 40.0835 44.0571C40.1344 44.108 40.1598 44.1723 40.1598 44.2499C40.1598 44.2901 40.1545 44.3289 40.1438 44.3664C40.1357 44.4039 40.1183 44.4614 40.0916 44.5391L39.9028 45.0973H39.6498L39.7984 44.4989C39.7475 44.4802 39.706 44.4494 39.6739 44.4065C39.6444 44.361 39.6297 44.3088 39.6297 44.2499C39.6297 44.1696 39.6552 44.104 39.706 44.0531C39.7569 44.0023 39.8212 43.9768 39.8988 43.9768ZM41.4153 41.6917V44.5029H41.0177V42.0411H40.3832V41.6917H41.4153ZM42.957 41.6917V44.5029H42.5594V42.0411H41.9248V41.6917H42.957Z" fill="#FF0000"/>
<path d="M34.7389 41.6917V44.5029H34.3413V42.0411H33.7068V41.6917H34.7389ZM36.2806 41.6917V44.5029H35.883V42.0411H35.2484V41.6917H36.2806ZM38.6696 43.029C38.8302 43.0906 38.9534 43.179 39.0391 43.2941C39.1248 43.4092 39.1676 43.5471 39.1676 43.7077C39.1676 43.8764 39.1221 44.0237 39.031 44.1495C38.94 44.2727 38.8102 44.3677 38.6415 44.4347C38.4728 44.5016 38.2747 44.5351 38.0471 44.5351C37.8222 44.5351 37.6254 44.5016 37.4567 44.4347C37.2908 44.3677 37.1622 44.2727 37.0712 44.1495C36.9802 44.0237 36.9347 43.8764 36.9347 43.7077C36.9347 43.5471 36.9762 43.4092 37.0592 43.2941C37.1448 43.179 37.268 43.0906 37.4286 43.029C37.3001 42.9675 37.2024 42.8858 37.1355 42.7841C37.0685 42.6823 37.0351 42.5618 37.0351 42.4226C37.0351 42.2673 37.0766 42.1321 37.1596 42.017C37.2452 41.9019 37.3644 41.8135 37.517 41.7519C37.6696 41.6903 37.8463 41.6596 38.0471 41.6596C38.2506 41.6596 38.4286 41.6903 38.5812 41.7519C38.7365 41.8135 38.8557 41.9019 38.9387 42.017C39.0244 42.1321 39.0672 42.2673 39.0672 42.4226C39.0672 42.5592 39.0324 42.6796 38.9628 42.7841C38.8958 42.8858 38.7981 42.9675 38.6696 43.029ZM38.0471 41.9849C37.857 41.9849 37.7071 42.0264 37.5973 42.1094C37.4875 42.1897 37.4327 42.2994 37.4327 42.4387C37.4327 42.5779 37.4862 42.6877 37.5933 42.768C37.7031 42.8483 37.8543 42.8885 38.0471 42.8885C38.2426 42.8885 38.3952 42.8483 38.5049 42.768C38.6174 42.6877 38.6736 42.5779 38.6736 42.4387C38.6736 42.2994 38.6161 42.1897 38.5009 42.1094C38.3885 42.0264 38.2372 41.9849 38.0471 41.9849ZM38.0471 44.2098C38.2693 44.2098 38.4447 44.1642 38.5732 44.0732C38.7017 43.9795 38.766 43.8537 38.766 43.6957C38.766 43.5404 38.7017 43.4186 38.5732 43.3302C38.4447 43.2392 38.2693 43.1937 38.0471 43.1937C37.8249 43.1937 37.6509 43.2392 37.525 43.3302C37.3992 43.4186 37.3363 43.5404 37.3363 43.6957C37.3363 43.8537 37.3992 43.9795 37.525 44.0732C37.6509 44.1642 37.8249 44.2098 38.0471 44.2098ZM39.8988 43.9768C39.9738 43.9768 40.0353 44.0036 40.0835 44.0571C40.1344 44.108 40.1598 44.1723 40.1598 44.2499C40.1598 44.2901 40.1545 44.3289 40.1438 44.3664C40.1357 44.4039 40.1183 44.4614 40.0916 44.5391L39.9028 45.0973H39.6498L39.7984 44.4989C39.7475 44.4802 39.706 44.4494 39.6739 44.4065C39.6444 44.361 39.6297 44.3088 39.6297 44.2499C39.6297 44.1696 39.6552 44.104 39.706 44.0531C39.7569 44.0023 39.8212 43.9768 39.8988 43.9768ZM41.4153 41.6917V44.5029H41.0177V42.0411H40.3832V41.6917H41.4153ZM42.957 41.6917V44.5029H42.5594V42.0411H41.9248V41.6917H42.957Z" fill="#0B1739"/>
<path d="M35.4307 40.0441C35.0358 40.0441 34.7296 39.9387 34.512 39.7278C34.2945 39.5137 34.1824 39.2108 34.1757 38.8192H34.8082C34.8149 39.0501 34.8701 39.2191 34.9739 39.3262C35.0776 39.43 35.2299 39.4819 35.4307 39.4819C35.6382 39.4819 35.7938 39.435 35.8976 39.3413C36.0013 39.2442 36.0532 39.1154 36.0532 38.9548C36.0532 38.8108 36.003 38.692 35.9026 38.5983C35.8056 38.5046 35.66 38.4578 35.4659 38.4578H35.004V37.9256H35.4659C35.6265 37.9256 35.752 37.8838 35.8424 37.8001C35.9327 37.7165 35.9779 37.6077 35.9779 37.4738C35.9779 37.3333 35.9311 37.2195 35.8373 37.1325C35.747 37.0455 35.6114 37.0019 35.4307 37.0019C35.0961 37.0019 34.9137 37.1894 34.8835 37.5642H34.251C34.2577 37.2128 34.3631 36.9384 34.5673 36.7409C34.7748 36.5401 35.0626 36.4397 35.4307 36.4397C35.6248 36.4397 35.7955 36.4648 35.9428 36.515C36.09 36.5619 36.2122 36.6288 36.3092 36.7158C36.4096 36.8028 36.4849 36.9082 36.5351 37.0321C36.5853 37.1525 36.6104 37.2864 36.6104 37.4337C36.6104 37.5943 36.5753 37.7399 36.505 37.8704C36.4347 38.0009 36.326 38.1064 36.1787 38.1867C36.3494 38.2704 36.4766 38.3841 36.5602 38.528C36.6439 38.6686 36.6857 38.8259 36.6857 38.9999C36.6857 39.1539 36.659 39.2961 36.6054 39.4266C36.5519 39.5538 36.4716 39.6643 36.3645 39.758C36.2607 39.8483 36.1302 39.9186 35.9729 39.9688C35.8189 40.019 35.6382 40.0441 35.4307 40.0441ZM38.0717 38.9497H37.8207V39.9989H37.2383V37.4889H37.8207V38.4377H38.0717L38.6741 37.4889H39.3468L38.5536 38.6736L39.4472 39.9989H38.7444L38.0717 38.9497Z" fill="#FF0000"/>
<path d="M35.4307 40.0441C35.0358 40.0441 34.7296 39.9387 34.512 39.7278C34.2945 39.5137 34.1824 39.2108 34.1757 38.8192H34.8082C34.8149 39.0501 34.8701 39.2191 34.9739 39.3262C35.0776 39.43 35.2299 39.4819 35.4307 39.4819C35.6382 39.4819 35.7938 39.435 35.8976 39.3413C36.0013 39.2442 36.0532 39.1154 36.0532 38.9548C36.0532 38.8108 36.003 38.692 35.9026 38.5983C35.8056 38.5046 35.66 38.4578 35.4659 38.4578H35.004V37.9256H35.4659C35.6265 37.9256 35.752 37.8838 35.8424 37.8001C35.9327 37.7165 35.9779 37.6077 35.9779 37.4738C35.9779 37.3333 35.9311 37.2195 35.8373 37.1325C35.747 37.0455 35.6114 37.0019 35.4307 37.0019C35.0961 37.0019 34.9137 37.1894 34.8835 37.5642H34.251C34.2577 37.2128 34.3631 36.9384 34.5673 36.7409C34.7748 36.5401 35.0626 36.4397 35.4307 36.4397C35.6248 36.4397 35.7955 36.4648 35.9428 36.515C36.09 36.5619 36.2122 36.6288 36.3092 36.7158C36.4096 36.8028 36.4849 36.9082 36.5351 37.0321C36.5853 37.1525 36.6104 37.2864 36.6104 37.4337C36.6104 37.5943 36.5753 37.7399 36.505 37.8704C36.4347 38.0009 36.326 38.1064 36.1787 38.1867C36.3494 38.2704 36.4766 38.3841 36.5602 38.528C36.6439 38.6686 36.6857 38.8259 36.6857 38.9999C36.6857 39.1539 36.659 39.2961 36.6054 39.4266C36.5519 39.5538 36.4716 39.6643 36.3645 39.758C36.2607 39.8483 36.1302 39.9186 35.9729 39.9688C35.8189 40.019 35.6382 40.0441 35.4307 40.0441ZM38.0717 38.9497H37.8207V39.9989H37.2383V37.4889H37.8207V38.4377H38.0717L38.6741 37.4889H39.3468L38.5536 38.6736L39.4472 39.9989H38.7444L38.0717 38.9497Z" fill="#0B1739"/>
<path fill-rule="evenodd" clip-rule="evenodd" d="M63.4819 25.0666H51.6868V27.3212H63.4819V25.0666ZM51.8193 27.1886V25.1992H63.3494V27.1886H51.8193Z" fill="#29313C"/>
<path d="M52.8795 26.2602V26.1276H62.4217V26.2602H52.8795Z" fill="#29313C"/>
<path d="M53.2771 25.5971H53.4096V26.9233H53.2771V25.5971Z" fill="#29313C"/>
<path d="M53.8073 25.5971H53.9398V26.9233H53.8073V25.5971Z" fill="#29313C"/>
<path d="M54.4698 25.5971H54.6024V26.9233H54.4698V25.5971Z" fill="#29313C"/>
<path d="M56.0603 25.5971H56.1928V26.9233H56.0603V25.5971Z" fill="#29313C"/>
<path d="M56.9879 25.5971H57.1204V26.9233H56.9879V25.5971Z" fill="#29313C"/>
<path d="M59.9037 25.5971H60.0362V26.9233H59.9037V25.5971Z" fill="#29313C"/>
<path d="M57.5181 25.5971H57.6506V26.9233H57.5181V25.5971Z" fill="#29313C"/>
<path d="M60.4337 25.5971H60.5662V26.9233H60.4337V25.5971Z" fill="#29313C"/>
<path d="M58.1808 25.5971H58.3133V26.9233H58.1808V25.5971Z" fill="#29313C"/>
<path d="M61.0964 25.5971H61.229V26.9233H61.0964V25.5971Z" fill="#29313C"/>
<path d="M61.759 25.5971H61.8916V26.9233H61.759V25.5971Z" fill="#29313C"/>
<path d="M55.1841 25.6826L55.3122 25.6486L55.6621 26.9705L55.534 27.0044L55.1841 25.6826Z" fill="#29313C"/>
<path d="M59.3729 25.6826L59.2448 25.6486L58.8949 26.9705L59.023 27.0044L59.3729 25.6826Z" fill="#29313C"/>
<path fill-rule="evenodd" clip-rule="evenodd" d="M21.275 28.2277V40.0315H23.528V28.2277H21.275ZM23.3955 28.3603V39.8989H21.4076V28.3603H23.3955Z" fill="#29313C"/>
<path d="M22.4677 38.8378H22.3352V29.2887H22.4677V38.8378Z" fill="#29313C"/>
<path d="M21.8051 38.44V38.3074H23.1304V38.44H21.8051Z" fill="#29313C"/>
<path d="M21.8051 37.9095V37.7768H23.1304V37.9095H21.8051Z" fill="#29313C"/>
<path d="M21.8051 37.2463V37.1137H23.1304V37.2463H21.8051Z" fill="#29313C"/>
<path d="M21.8051 35.6548V35.5222H23.1304V35.6548H21.8051Z" fill="#29313C"/>
<path d="M21.8051 34.7264V34.5938H23.1304V34.7264H21.8051Z" fill="#29313C"/>
<path d="M21.8051 31.8086V31.676H23.1304V31.8086H21.8051Z" fill="#29313C"/>
<path d="M21.8051 34.1959V34.0633H23.1304V34.1959H21.8051Z" fill="#29313C"/>
<path d="M21.8051 31.2781V31.1454H23.1304V31.2781H21.8051Z" fill="#29313C"/>
<path d="M21.8051 33.5327V33.4001H23.1304V33.5327H21.8051Z" fill="#29313C"/>
<path d="M21.8051 30.615V30.4823H23.1304V30.615H21.8051Z" fill="#29313C"/>
<path d="M21.8051 29.9518V29.8192H23.1304V29.9518H21.8051Z" fill="#29313C"/>
<path d="M21.8905 36.5316L21.8566 36.4034L23.1775 36.0533L23.2114 36.1815L21.8905 36.5316Z" fill="#29313C"/>
<path d="M23.1775 32.8181L23.2114 32.6899L21.8905 32.3397L21.8566 32.4679L23.1775 32.8181Z" fill="#29313C"/>
<path fill-rule="evenodd" clip-rule="evenodd" d="M23.3253 11.6712V18.8331H25.5783V11.6712H23.3253ZM25.4458 18.7004H23.4578V11.8038H25.4458V18.7004Z" fill="#29313C"/>
<path d="M24.518 18.3026H24.3855V12.467H24.518V18.3026Z" fill="#29313C"/>
<path d="M23.8555 17.9047V17.7721H25.1808V17.9047H23.8555Z" fill="#29313C"/>
<path d="M23.8555 17.3742V17.2415H25.1808V17.3742H23.8555Z" fill="#29313C"/>
<path d="M23.8555 16.7111V16.5784H25.1808V16.7111H23.8555Z" fill="#29313C"/>
<path d="M23.8555 15.1195V14.9869H25.1808V15.1195H23.8555Z" fill="#29313C"/>
<path d="M23.8555 14.1911V14.0585H25.1808V14.1911H23.8555Z" fill="#29313C"/>
<path d="M23.8555 13.6606V13.528H25.1808V13.6606H23.8555Z" fill="#29313C"/>
<path d="M23.8555 12.9975V12.8649H25.1808V12.9975H23.8555Z" fill="#29313C"/>
<path d="M23.9409 15.9964L23.907 15.8682L25.2279 15.518L25.2618 15.6462L23.9409 15.9964Z" fill="#29313C"/>
<path fill-rule="evenodd" clip-rule="evenodd" d="M2.51806 18.8331H9.67468V16.5784H2.51806V18.8331ZM9.54215 16.711V18.7004H2.65059V16.711H9.54215Z" fill="#29313C"/>
<path d="M9.14453 17.6394V17.7721H3.31321V17.6394H9.14453Z" fill="#29313C"/>
<path d="M8.74695 18.3026H8.61442V16.9763H8.74695V18.3026Z" fill="#29313C"/>
<path d="M8.21692 18.3026H8.08439V16.9763H8.21692V18.3026Z" fill="#29313C"/>
<path d="M7.5542 18.3026H7.42167V16.9763H7.5542V18.3026Z" fill="#29313C"/>
<path d="M5.96387 18.3026H5.83134V16.9763H5.96387V18.3026Z" fill="#29313C"/>
<path d="M5.03613 18.3026H4.9036V16.9763H5.03613V18.3026Z" fill="#29313C"/>
<path d="M4.50598 18.3026H4.37345V16.9763H4.50598V18.3026Z" fill="#29313C"/>
<path d="M3.84338 18.3026H3.71085V16.9763H3.84338V18.3026Z" fill="#29313C"/>
<path d="M6.84009 18.2171L6.71198 18.251L6.36206 16.9292L6.49017 16.8952L6.84009 18.2171Z" fill="#29313C"/>
<path fill-rule="evenodd" clip-rule="evenodd" d="M55.9278 4.7746L63.6145 4.7746V2.51993L55.9278 2.51993V4.7746ZM63.482 2.65256V4.64197L56.0603 4.64197V2.65256L63.482 2.65256Z" fill="#29313C"/>
<path d="M62.5542 3.58093V3.71356L56.7229 3.71356V3.58093L62.5542 3.58093Z" fill="#29313C"/>
<path d="M62.1566 4.24408H62.0241V2.91781H62.1566V4.24408Z" fill="#29313C"/>
<path d="M61.6265 4.24408H61.4939V2.91781H61.6265V4.24408Z" fill="#29313C"/>
<path d="M60.9639 4.24408H60.8313V2.91781H60.9639V4.24408Z" fill="#29313C"/>
<path d="M59.3735 4.24408H59.241V2.91781H59.3735V4.24408Z" fill="#29313C"/>
<path d="M58.4458 4.24408H58.3133V2.91781H58.4458V4.24408Z" fill="#29313C"/>
<path d="M57.9156 4.24408H57.7831V2.91781H57.9156V4.24408Z" fill="#29313C"/>
<path d="M57.2531 4.24408H57.1205V2.91781H57.2531V4.24408Z" fill="#29313C"/>
<path d="M60.2498 4.15857L60.1216 4.19254L59.7717 2.87068L59.8998 2.83672L60.2498 4.15857Z" fill="#29313C"/>
<path fill-rule="evenodd" clip-rule="evenodd" d="M63.7502 11.089V4.64197H61.4972V11.089H63.7502ZM61.6298 10.9564V4.77459H63.6177V10.9564H61.6298Z" fill="#29313C"/>
<path d="M62.5575 5.52048H62.6901V10.4328H62.5575V5.52048Z" fill="#29313C"/>
<path d="M63.2201 5.85394V5.98657H61.8948V5.85394H63.2201Z" fill="#29313C"/>
<path d="M63.2201 6.29858V6.43121H61.8948V6.29858H63.2201Z" fill="#29313C"/>
<path d="M63.2201 6.85437V6.987H61.8948V6.85437H63.2201Z" fill="#29313C"/>
<path d="M63.2201 8.18823V8.32086H61.8948V8.18823H63.2201Z" fill="#29313C"/>
<path d="M63.2201 8.96634V9.09897H61.8948V8.96634H63.2201Z" fill="#29313C"/>
<path d="M63.2201 9.41095V9.54358H61.8948V9.41095H63.2201Z" fill="#29313C"/>
<path d="M63.2201 9.96674V10.0994H61.8948V9.96674H63.2201Z" fill="#29313C"/>
<path d="M63.1379 7.45291L63.1666 7.58239L61.8445 7.87615L61.8157 7.74667L63.1379 7.45291Z" fill="#29313C"/>
<path fill-rule="evenodd" clip-rule="evenodd" d="M55.7952 12.2017H52.2169V14.0585H55.7952V12.2017ZM52.3494 13.9259V12.3343H55.6627V13.9259H52.3494Z" fill="#29313C"/>
<path fill-rule="evenodd" clip-rule="evenodd" d="M44.6627 28.9128H34.8555V30.6369H44.6627V28.9128ZM44.5302 30.5043H34.988V29.0454H44.5302V30.5043Z" fill="#29313C"/>
<path fill-rule="evenodd" clip-rule="evenodd" d="M43.735 29.4433H35.6506V30.1064H43.735V29.4433ZM43.6024 29.9738H35.7832V29.5759H43.6024V29.9738Z" fill="#29313C"/>
<path fill-rule="evenodd" clip-rule="evenodd" d="M31.1759 29.4477L27.9065 30.9047L29.1459 33.6909L32.4153 32.234L31.1759 29.4477ZM32.2403 32.1668L29.2131 33.5158L28.0815 30.9719L31.1087 29.6229L32.2403 32.1668Z" fill="#29313C"/>
<path fill-rule="evenodd" clip-rule="evenodd" d="M31.1759 29.4477L27.9065 30.9047L29.1459 33.6909L32.4153 32.234L31.1759 29.4477ZM32.2403 32.1668L29.2131 33.5158L28.0815 30.9719L31.1087 29.6229L32.2403 32.1668Z" fill="#29313C"/>
<path fill-rule="evenodd" clip-rule="evenodd" d="M31.7814 29.178L27.3012 31.1745L28.5406 33.9607L33.0207 31.9642L31.7814 29.178ZM32.8457 31.897L28.6078 33.7856L27.4762 31.2417L31.7142 29.3531L32.8457 31.897Z" fill="#29313C"/>
<path fill-rule="evenodd" clip-rule="evenodd" d="M31.1758 29.4477L27.9066 30.9045L28.3377 31.8735L31.6068 30.4167L31.1758 29.4477ZM31.4318 30.3496L28.4049 31.6984L28.0816 30.9717L31.1085 29.6228L31.4318 30.3496Z" fill="#29313C"/>
<path fill-rule="evenodd" clip-rule="evenodd" d="M35.5181 50.1331H39.0964V47.0827H35.5181V50.1331ZM38.9639 47.2153V50.0005H35.6507V47.2153H38.9639Z" fill="#29313C"/>
<path fill-rule="evenodd" clip-rule="evenodd" d="M35.5181 50.1331H39.0964V47.0827H35.5181V50.1331ZM38.9639 47.2153V50.0005H35.6507V47.2153H38.9639Z" fill="#29313C"/>
<path fill-rule="evenodd" clip-rule="evenodd" d="M34.8554 50.1331H39.759V47.0827H34.8554V50.1331ZM39.6265 47.2153V50.0005H34.988V47.2153H39.6265Z" fill="#29313C"/>
<path fill-rule="evenodd" clip-rule="evenodd" d="M35.5181 50.1331H39.0964V49.0721H35.5181V50.1331ZM38.9639 49.2047V50.0005H35.6507V49.2047H38.9639Z" fill="#29313C"/>
<path fill-rule="evenodd" clip-rule="evenodd" d="M26.241 43.5018V47.0827H29.2892V43.5018H26.241ZM29.1566 46.9501H26.3735V43.6344H29.1566V46.9501Z" fill="#29313C"/>
<path fill-rule="evenodd" clip-rule="evenodd" d="M26.241 40.0535V43.6344H29.2892V40.0535H26.241ZM29.1566 43.5018H26.3735V40.1861H29.1566V43.5018Z" fill="#29313C"/>
<path fill-rule="evenodd" clip-rule="evenodd" d="M26.241 36.6051V40.1861H29.2892V36.6051H26.241ZM29.1566 40.0534H26.3735V36.7378H29.1566V40.0534Z" fill="#29313C"/>
<path fill-rule="evenodd" clip-rule="evenodd" d="M26.241 36.6052V47.0827H29.2892V36.6052H26.241ZM29.1566 46.9501H26.3735V36.7378H29.1566V46.9501Z" fill="#29313C"/>
<path fill-rule="evenodd" clip-rule="evenodd" d="M26.241 35.942V47.7458H29.2892V35.942H26.241ZM29.1566 47.6132H26.3735V36.0746H29.1566V47.6132Z" fill="#29313C"/>
<path fill-rule="evenodd" clip-rule="evenodd" d="M26.241 43.5018V47.0827H27.3012V43.5018H26.241ZM27.1687 46.9501H26.3735V43.6344H27.1687V46.9501Z" fill="#29313C"/>
<path fill-rule="evenodd" clip-rule="evenodd" d="M26.241 40.0535V43.6344H27.3012V40.0535H26.241ZM27.1687 43.5018H26.3735V40.1861H27.1687V43.5018Z" fill="#29313C"/>
<path fill-rule="evenodd" clip-rule="evenodd" d="M26.241 36.6051V40.1861H27.3012V36.6051H26.241ZM27.1687 40.0534H26.3735V36.7378H27.1687V40.0534Z" fill="#29313C"/>
<path fill-rule="evenodd" clip-rule="evenodd" d="M48.7048 44.0986C48.7048 45.7833 50.0696 47.149 51.753 47.149C53.4365 47.149 54.8012 45.7833 54.8012 44.0986C54.8012 42.4139 53.4365 41.0482 51.753 41.0482C50.0696 41.0482 48.7048 42.4139 48.7048 44.0986ZM54.6687 44.0986C54.6687 45.71 53.3633 47.0164 51.753 47.0164C50.1428 47.0164 48.8374 45.71 48.8374 44.0986C48.8374 42.4871 50.1428 41.1808 51.753 41.1808C53.3633 41.1808 54.6687 42.4871 54.6687 44.0986Z" fill="#29313C"/>
<path fill-rule="evenodd" clip-rule="evenodd" d="M56.0914 40.3874L54.566 38.9133L53.2772 40.2489L54.8025 41.723L56.0914 40.3874ZM54.7992 41.5355L53.4646 40.2457L54.5693 39.1008L55.904 40.3907L54.7992 41.5355Z" fill="#29313C"/>
<path fill-rule="evenodd" clip-rule="evenodd" d="M56.2644 47.1293L54.739 48.6034L53.5422 47.3632L54.9722 45.9812L54.9722 45.9812L54.9722 45.9812L55.0676 45.8891L56.2644 47.1293ZM54.9722 45.9812L55.1596 45.9845L55.0643 46.0766L54.9722 45.9812L54.9722 45.9812ZM53.7296 47.3664L55.0643 46.0766L56.077 47.126L54.7423 48.4159L53.7296 47.3664Z" fill="#29313C"/>
<path fill-rule="evenodd" clip-rule="evenodd" d="M56.9879 44.9607V42.8386H55.265V44.9607H56.9879ZM55.3976 42.9713H56.8554V44.828H55.3976V42.9713Z" fill="#29313C"/>
<path fill-rule="evenodd" clip-rule="evenodd" d="M46.1205 45.516L47.0498 47.423L48.7308 46.6024L47.8015 44.6954L46.1205 45.516ZM47.7405 44.8728L48.5536 46.5414L47.1109 47.2457L46.2977 45.5771L47.7405 44.8728Z" fill="#29313C"/>
<path fill-rule="evenodd" clip-rule="evenodd" d="M26.506 7.82502V9.94705H28.376V7.82502H26.506ZM28.2435 7.95764V9.81443H26.6385V7.95764H28.2435Z" fill="#29313C"/>
<path fill-rule="evenodd" clip-rule="evenodd" d="M26.506 4.11145V6.23349H28.376V4.11145H26.506ZM28.2435 4.24408V6.10086H26.6385V4.24408H28.2435Z" fill="#29313C"/>
<path fill-rule="evenodd" clip-rule="evenodd" d="M49.9961 49.1818L52.0961 49.4773L52.3173 47.9014L50.2173 47.6059L49.9961 49.1818ZM52.1676 48.0143L51.9833 49.3275L50.1458 49.0689L50.3301 47.7557L52.1676 48.0143Z" fill="#29313C"/>
<path fill-rule="evenodd" clip-rule="evenodd" d="M5.69879 49.0721H2.51807V51.3268H5.69879V49.0721ZM2.6506 51.1941V49.2047H5.56626V51.1941H2.6506Z" fill="#29313C"/>
<path fill-rule="evenodd" clip-rule="evenodd" d="M41.4819 7.69239V13.6606H43.7349V7.69239H41.4819ZM43.6024 13.528H41.6145V7.82501H43.6024V13.528Z" fill="#29313C"/>
<path fill-rule="evenodd" clip-rule="evenodd" d="M5.69879 2.51993H2.51807V4.77459H5.69879V2.51993ZM2.6506 4.64196V2.65255H5.56626V4.64196H2.6506Z" fill="#29313C"/>
<path fill-rule="evenodd" clip-rule="evenodd" d="M23.5904 49.0721H16.6989V51.3268H23.5904V49.0721ZM16.8314 51.1941V49.2047H23.4579V51.1941H16.8314Z" fill="#29313C"/>
<path fill-rule="evenodd" clip-rule="evenodd" d="M22.6627 2.51993H16.6989V4.77459H22.6627V2.51993ZM16.8314 4.64196V2.65255H22.5302V4.64196H16.8314Z" fill="#29313C"/>
<path fill-rule="evenodd" clip-rule="evenodd" d="M15.241 40.9818H7.28918V51.3268H15.241V40.9818ZM7.42171 51.1941V41.1145H15.1085V51.1941H7.42171Z" fill="#29313C"/>
<path fill-rule="evenodd" clip-rule="evenodd" d="M10.8675 48.9395H7.81934V50.9289H10.8675V48.9395ZM10.735 50.7963H7.95187V49.0721H10.735V50.7963Z" fill="#29313C"/>
<path fill-rule="evenodd" clip-rule="evenodd" d="M14.5783 48.9395H11.5302V50.9289H14.5783V48.9395ZM11.6627 50.7963V49.0721H14.4458V50.7963H11.6627Z" fill="#29313C"/>
<path fill-rule="evenodd" clip-rule="evenodd" d="M15.241 40.9818H7.28918V48.2763H15.241V40.9818ZM7.42171 48.1437V41.1145H15.1085V48.1437H7.42171Z" fill="#29313C"/>
<path fill-rule="evenodd" clip-rule="evenodd" d="M15.241 40.9818H7.28918V46.9501H15.241V40.9818ZM7.42171 46.8174V41.1145H15.1085V46.8174H7.42171Z" fill="#29313C"/>
<path fill-rule="evenodd" clip-rule="evenodd" d="M15.241 12.8649H7.28918V2.51994H15.241V12.8649ZM7.42171 2.65257V12.7322H15.1085V2.65257H7.42171Z" fill="#29313C"/>
<path fill-rule="evenodd" clip-rule="evenodd" d="M10.8675 4.90723H7.81934V2.91782H10.8675V4.90723ZM7.95187 3.05045V4.7746H10.735V3.05045H7.95187Z" fill="#29313C"/>
<path fill-rule="evenodd" clip-rule="evenodd" d="M14.5783 4.90723H11.5302V2.91782H14.5783V4.90723ZM11.6627 3.05045V4.7746H14.4458V3.05045H11.6627Z" fill="#29313C"/>
<path fill-rule="evenodd" clip-rule="evenodd" d="M15.241 12.8649H7.28918V5.57037H15.241V12.8649ZM7.42171 5.70299V12.7322H15.1085V5.70299H7.42171Z" fill="#29313C"/>
<path fill-rule="evenodd" clip-rule="evenodd" d="M15.241 12.8649H7.28918V6.89664H15.241V12.8649ZM7.42171 7.02927V12.7322H15.1085V7.02927H7.42171Z" fill="#29313C"/>
<path fill-rule="evenodd" clip-rule="evenodd" d="M33.3976 18.8331V14.589H43.7349V18.8331H33.3976ZM43.6024 14.7216H33.5301V18.7005H43.6024V14.7216Z" fill="#29313C"/>
<path fill-rule="evenodd" clip-rule="evenodd" d="M41.3494 18.1699V15.1195H43.3373V18.1699H41.3494ZM43.2048 15.2521H41.4819V18.0373H43.2048V15.2521Z" fill="#29313C"/>
<path fill-rule="evenodd" clip-rule="evenodd" d="M33.3976 18.8331V14.589H40.6867V18.8331H33.3976ZM40.5542 14.7216H33.5301V18.7005H40.5542V14.7216Z" fill="#29313C"/>
<path fill-rule="evenodd" clip-rule="evenodd" d="M33.3976 18.8331V14.589H39.3614V18.8331H33.3976ZM39.2289 14.7216H33.5301V18.7005H39.2289V14.7216Z" fill="#29313C"/>
<path fill-rule="evenodd" clip-rule="evenodd" d="M33.3976 6.764V2.51993L43.7349 2.51993V6.764L33.3976 6.764ZM43.6024 2.65255L33.5301 2.65255V6.63137L43.6024 6.63137V2.65255Z" fill="#29313C"/>
<path fill-rule="evenodd" clip-rule="evenodd" d="M41.3494 6.10087V3.05045H43.3373V6.10087H41.3494ZM43.2048 3.18307H41.4819V5.96825H43.2048V3.18307Z" fill="#29313C"/>
<path fill-rule="evenodd" clip-rule="evenodd" d="M33.3976 6.764V2.51993L40.6867 2.51993V6.764L33.3976 6.764ZM40.5542 2.65255L33.5301 2.65255V6.63137H40.5542V2.65255Z" fill="#29313C"/>
<path fill-rule="evenodd" clip-rule="evenodd" d="M33.3976 6.764V2.51993L39.3614 2.51993V6.764H33.3976ZM39.2289 2.65255L33.5301 2.65255V6.63137H39.2289V2.65255Z" fill="#29313C"/>
<path fill-rule="evenodd" clip-rule="evenodd" d="M26.6386 2.51993H23.3253V11.1407H26.6386V2.51993ZM23.4578 11.0081V2.65255H26.506V11.0081H23.4578Z" fill="#29313C"/>
<path fill-rule="evenodd" clip-rule="evenodd" d="M7.88354 34.475H5.76306L5.76306 36.3463H7.88354V34.475ZM7.75101 36.2137H5.89559V34.6076H7.75101V36.2137Z" fill="#29313C"/>
<path fill-rule="evenodd" clip-rule="evenodd" d="M11.0717 34.6149V31.2992H2.4572V34.6149H11.0717ZM2.58973 34.4823V31.4319H10.9391V34.4823H2.58973Z" fill="#29313C"/>
<path fill-rule="evenodd" clip-rule="evenodd" d="M64.0121 28.3823H51.6868V31.5653H64.0121V28.3823ZM51.8193 31.4327V28.5149H63.8795V31.4327H51.8193Z" fill="#29313C"/>
</svg>
